<svg viewBox="0 0 452 155" fill="none" xmlns="http://www.w3.org/2000/svg">
<path d="M54.3638 1.45188C69.2438 1.45188 80.4758 5.57988 88.0598 13.8359C95.6438 22.0919 99.4358 33.8039 99.4358 48.9719C99.4358 64.0439 95.6438 75.7559 88.0598 84.1079C80.4758 92.3639 69.2438 96.4919 54.3638 96.4919H7.70781V1.45188H54.3638ZM49.6118 72.5879C55.8518 72.5879 59.9798 70.7159 61.9958 66.9719C64.1078 63.1319 65.1638 57.1319 65.1638 48.9719C65.1638 40.8119 64.1078 34.8599 61.9958 31.1159C59.9798 27.2759 55.8518 25.3559 49.6118 25.3559H41.2598V72.5879H49.6118ZM144.338 1.45188V96.4919H110.786V1.45188H144.338ZM200.355 0.0118799C209.475 0.0118799 217.635 1.16388 224.835 3.46788C232.131 5.67588 238.563 9.03588 244.131 13.5479L230.595 35.1479C226.083 31.9799 221.331 29.4359 216.339 27.5159C211.443 25.5959 206.115 24.6359 200.355 24.6359C197.859 24.6359 195.843 24.8279 194.307 25.2119C192.867 25.5959 191.811 26.1239 191.139 26.7959C190.563 27.4679 190.275 28.2359 190.275 29.0999C190.275 30.2519 191.139 31.1159 192.867 31.6919C194.691 32.2679 196.947 32.8919 199.635 33.5639L212.739 36.5879C222.435 38.7959 229.731 42.0599 234.627 46.3799C239.619 50.6999 242.115 56.6999 242.115 64.3799C242.115 72.0599 240.243 78.3959 236.499 83.3879C232.755 88.2839 227.667 91.9319 221.235 94.3319C214.899 96.7319 207.699 97.9319 199.635 97.9319C193.587 97.9319 187.539 97.4039 181.491 96.3479C175.443 95.1959 169.827 93.5639 164.643 91.4519C159.459 89.2439 154.995 86.6039 151.251 83.5319L164.499 61.4999C167.283 63.7079 170.643 65.7239 174.579 67.5479C178.515 69.2759 182.595 70.6679 186.819 71.7239C191.043 72.7799 194.979 73.3079 198.627 73.3079C200.931 73.3079 202.755 73.1159 204.099 72.7319C205.443 72.3479 206.355 71.8679 206.835 71.2919C207.411 70.6199 207.699 69.8519 207.699 68.9879C207.699 67.6439 207.123 66.6359 205.971 65.9639C204.915 65.2919 202.947 64.6199 200.067 63.9479L185.667 60.7799C180.579 59.6279 175.731 58.0919 171.123 56.1719C166.515 54.2519 162.771 51.4679 159.891 47.8199C157.011 44.0759 155.571 39.0359 155.571 32.6999C155.571 26.1719 157.299 20.4599 160.755 15.5639C164.307 10.6679 169.395 6.87588 176.019 4.18788C182.739 1.40388 190.851 0.0118799 200.355 0.0118799ZM302.514 1.45188C311.058 1.45188 318.306 2.74788 324.258 5.33988C330.21 7.93188 334.722 11.7239 337.794 16.7159C340.866 21.7079 342.402 27.8039 342.402 35.0039C342.402 42.2039 340.866 48.2999 337.794 53.2919C334.722 58.2839 330.21 62.0759 324.258 64.6679C318.306 67.2599 311.058 68.5559 302.514 68.5559H285.666V96.4919H252.114V1.45188H302.514ZM297.042 44.7959C300.69 44.7959 303.57 44.0279 305.682 42.4919C307.794 40.8599 308.85 38.3639 308.85 35.0039C308.85 31.6439 307.794 29.1959 305.682 27.6599C303.57 26.0279 300.69 25.2119 297.042 25.2119H285.666V44.7959H297.042ZM399.146 0.0118799C409.226 0.0118799 417.866 1.93188 425.066 5.77187C432.266 9.61188 437.786 15.1799 441.626 22.4759C445.466 29.7719 447.386 38.6039 447.386 48.9719C447.386 59.3399 445.466 68.1719 441.626 75.4679C437.786 82.7639 432.266 88.3319 425.066 92.1719C417.866 96.0119 409.226 97.9319 399.146 97.9319C389.162 97.9319 380.522 96.0119 373.226 92.1719C366.026 88.3319 360.458 82.7639 356.522 75.4679C352.682 68.1719 350.762 59.3399 350.762 48.9719C350.762 38.6039 352.682 29.7719 356.522 22.4759C360.458 15.1799 366.026 9.61188 373.226 5.77187C380.522 1.93188 389.162 0.0118799 399.146 0.0118799ZM399.146 25.2119C395.882 25.2119 393.194 26.0759 391.082 27.8039C389.066 29.4359 387.53 31.9799 386.474 35.4359C385.514 38.8919 385.034 43.4039 385.034 48.9719C385.034 54.4439 385.514 58.9559 386.474 62.5079C387.53 65.9639 389.066 68.5559 391.082 70.2839C393.194 71.9159 395.882 72.7319 399.146 72.7319C402.41 72.7319 405.05 71.9159 407.066 70.2839C409.178 68.5559 410.714 65.9639 411.674 62.5079C412.634 58.9559 413.114 54.4439 413.114 48.9719C413.114 43.4039 412.634 38.8919 411.674 35.4359C410.714 31.9799 409.178 29.4359 407.066 27.8039C405.05 26.0759 402.41 25.2119 399.146 25.2119Z" fill="#FD3030"/>
<path d="M133.396 132.584V138.884H119.356V132.584H133.396ZM137.898 145.508V121.748H151.506C154.506 121.772 156.738 122.312 158.202 123.368C159.666 124.4 160.398 125.972 160.398 128.084C160.398 129.5 159.966 130.7 159.102 131.684C158.238 132.668 156.882 133.292 155.034 133.556V133.592C157.098 133.808 158.61 134.42 159.57 135.428C160.53 136.436 161.01 137.708 161.01 139.244C161.01 141.332 160.302 142.904 158.886 143.96C157.494 144.992 155.346 145.508 152.442 145.508H137.898ZM145.926 140.036H150.21C150.954 140.036 151.506 139.892 151.866 139.604C152.25 139.292 152.442 138.848 152.442 138.272C152.442 137.72 152.25 137.3 151.866 137.012C151.506 136.724 150.954 136.58 150.21 136.58H145.926V140.036ZM145.926 130.964H149.67C151.11 130.964 151.83 130.388 151.83 129.236C151.83 128.084 151.11 127.508 149.67 127.508H145.926V130.964ZM185.745 121.748V135.284C185.745 138.836 184.785 141.488 182.865 143.24C180.969 144.992 178.101 145.868 174.261 145.868C170.421 145.868 167.541 144.992 165.621 143.24C163.725 141.488 162.777 138.836 162.777 135.284V121.748H171.201V135.932C171.201 137.132 171.465 138.044 171.993 138.668C172.521 139.268 173.277 139.568 174.261 139.568C175.269 139.568 176.037 139.268 176.565 138.668C177.093 138.044 177.357 137.132 177.357 135.932V121.748H185.745ZM211.05 121.748V127.904H203.634V145.508H195.246V127.904H187.794V121.748H211.05ZM225.611 132.584V138.884H211.571V132.584H225.611ZM239.813 121.388C242.093 121.388 244.133 121.676 245.933 122.252C247.757 122.804 249.365 123.644 250.757 124.772L247.373 130.172C246.245 129.38 245.057 128.744 243.809 128.264C242.585 127.784 241.253 127.544 239.813 127.544C239.189 127.544 238.685 127.592 238.301 127.688C237.941 127.784 237.677 127.916 237.509 128.084C237.365 128.252 237.293 128.444 237.293 128.66C237.293 128.948 237.509 129.164 237.941 129.308C238.397 129.452 238.961 129.608 239.633 129.776L242.909 130.532C245.333 131.084 247.157 131.9 248.381 132.98C249.629 134.06 250.253 135.56 250.253 137.48C250.253 139.4 249.785 140.984 248.849 142.232C247.913 143.456 246.641 144.368 245.033 144.968C243.449 145.568 241.649 145.868 239.633 145.868C238.121 145.868 236.609 145.736 235.097 145.472C233.585 145.184 232.181 144.776 230.885 144.248C229.589 143.696 228.473 143.036 227.537 142.268L230.849 136.76C231.545 137.312 232.385 137.816 233.369 138.272C234.353 138.704 235.373 139.052 236.429 139.316C237.485 139.58 238.469 139.712 239.381 139.712C239.957 139.712 240.413 139.664 240.749 139.568C241.085 139.472 241.313 139.352 241.433 139.208C241.577 139.04 241.649 138.848 241.649 138.632C241.649 138.296 241.505 138.044 241.217 137.876C240.953 137.708 240.461 137.54 239.741 137.372L236.141 136.58C234.869 136.292 233.657 135.908 232.505 135.428C231.353 134.948 230.417 134.252 229.697 133.34C228.977 132.404 228.617 131.144 228.617 129.56C228.617 127.928 229.049 126.5 229.913 125.276C230.801 124.052 232.073 123.104 233.729 122.432C235.409 121.736 237.437 121.388 239.813 121.388ZM261.141 139.352H271.905V145.508H252.753V121.748H261.141V139.352ZM285.187 121.388C287.707 121.388 289.867 121.868 291.667 122.828C293.467 123.788 294.847 125.18 295.807 127.004C296.767 128.828 297.247 131.036 297.247 133.628C297.247 136.22 296.767 138.428 295.807 140.252C294.847 142.076 293.467 143.468 291.667 144.428C289.867 145.388 287.707 145.868 285.187 145.868C282.691 145.868 280.531 145.388 278.707 144.428C276.907 143.468 275.515 142.076 274.531 140.252C273.571 138.428 273.091 136.22 273.091 133.628C273.091 131.036 273.571 128.828 274.531 127.004C275.515 125.18 276.907 123.788 278.707 122.828C280.531 121.868 282.691 121.388 285.187 121.388ZM285.187 127.688C284.371 127.688 283.699 127.904 283.171 128.336C282.667 128.744 282.283 129.38 282.019 130.244C281.779 131.108 281.659 132.236 281.659 133.628C281.659 134.996 281.779 136.124 282.019 137.012C282.283 137.876 282.667 138.524 283.171 138.956C283.699 139.364 284.371 139.568 285.187 139.568C286.003 139.568 286.663 139.364 287.167 138.956C287.695 138.524 288.079 137.876 288.319 137.012C288.559 136.124 288.679 134.996 288.679 133.628C288.679 132.236 288.559 131.108 288.319 130.244C288.079 129.38 287.695 128.744 287.167 128.336C286.663 127.904 286.003 127.688 285.187 127.688ZM304.014 145.508L297.282 121.748H306.318L309.09 138.92L312.438 121.748H319.638L323.166 138.812L325.866 121.748H334.578L327.81 145.508H318.918L317.046 136.58L316.11 130.496H316.002L315.066 136.58L313.23 145.508H304.014Z" fill="currentColor"/>
</svg>
